<svg xmlns="http://www.w3.org/2000/svg" width="326.88" height="160.8" viewBox="0 0 326.88 160.8">
    <path fill="#F40924" d="M287.01 22.167c-32.733 0-59.27 26.536-59.27 59.27 0 20.946 10.867 39.35 27.27 49.892h10.993v-13.937c-12.34-7.227-20.632-20.622-20.632-35.956 0-22.997 18.644-41.64 41.64-41.64 9.77 0 18.75 3.37 25.85 9.003h13.915V37.485c-10.516-9.52-24.462-15.318-39.764-15.318z" enable-background="new"/>
    <path fill-rule="evenodd" clip-rule="evenodd" fill="#F40924" d="M161.66 160.748l28.987-28.988H168.48v-.044c-.06 0-.12.005-.183.005-.09 0-.177-.005-.266-.006l-17.703 17.704 11.332 11.33zm6.637-138.236c-30.157 0-54.605 24.448-54.605 54.605 0 30.068 24.305 54.454 54.34 54.598l.447-.448v-.227h.226l3.393-3.392v-.073h.072l12.096-12.096h-15.97c-21.188 0-38.362-17.176-38.362-38.362s17.175-38.362 38.36-38.362S206.66 55.93 206.66 77.118c0 9.393-3.38 17.993-8.985 24.662v.294l.073-.073 11.06 11.06h.558c8.418-9.603 13.538-22.167 13.538-35.94 0-30.16-24.448-54.608-54.605-54.608z" enable-background="new"/>
    <path fill-rule="evenodd" clip-rule="evenodd" fill="#F40924" d="M97.18 42.954l29.71-29.71L113.692.048l-30.53 30.53c5.356 3.296 10.094 7.493 14.016 12.376zM85.6 54.534c4.622 6.337 7.357 14.14 7.357 22.583 0 21.187-17.175 38.36-38.36 38.36s-38.364-17.174-38.364-38.36 17.175-38.362 38.362-38.362c5.952 0 11.588 1.356 16.615 3.775l11.952-11.952c-8.31-5.113-18.093-8.067-28.566-8.067C24.44 22.51-.01 46.96-.01 77.117s24.45 54.604 54.606 54.604c30.157 0 54.604-24.447 54.604-54.604 0-12.933-4.506-24.808-12.02-34.163L85.6 54.535zM71.21 42.53L58.464 55.277 71.66 68.473l13.938-13.938C81.88 49.44 76.945 45.29 71.21 42.53z" enable-background="new"/>
</svg>
