<svg xmlns="http://www.w3.org/2000/svg" style="display: none;">
  
    <symbol id="icon-twitter" viewBox="0 0 512 512">
      <path d="m492 110c-13 20-29 36-48 50l0 12c0 128-98 276-276 276c-55 0-105-16-148-44c8 1 15 2 23 2c45 0 87-16 120-42c-42-1-78-29-90-67c6 1 12 2 18 2c9 0 18-2 26-4c-44-9-78-48-78-95l0-1c13 7 28 12 44 12c-26-17-43-47-43-81c0-18 5-34 13-48c48 59 119 97 199 101c-2-7-2-14-2-22c0-54 43-97 97-97c28 0 52 12 70 31c22-4 43-13 62-24c-7 23-23 42-43 54c20-2 39-7 56-15z"/>
    </symbol>
  
    <symbol id="icon-github" viewBox="0 0 512 512">
      <path d="m256 32c124 0 224 103 224 230c0 101-64 188-153 218l-4 0c-8 0-12-7-12-12c0-8 1-31 1-62c0-21-8-36-16-43c50-6 103-25 103-113c0-25-9-46-23-62c2-6 10-29-2-61l-5 0c-8 0-27 3-57 24c-18-5-37-8-56-8c-19 0-38 3-56 8c-30-21-49-24-57-24l-5 0c-12 32-4 55-2 61c-14 16-23 37-23 62c0 88 52 107 102 113c-6 6-12 16-14 31c-6 3-16 6-26 6c-13 0-28-5-39-25c0 0-13-22-35-24c-2 0-21 0-1 14c0 0 15 8 25 34c0 0 10 33 53 33c7 0 14 0 22-2l0 39c0 5-3 11-11 11l-4 0c-89-30-153-116-153-218c0-127 100-230 224-230z"/>
    </symbol>
  
    <symbol id="icon-linkedin" viewBox="0 0 512 512">
      <path d="m417 64c18 0 31 13 31 30l0 321c0 17-13 33-31 33l-320 0c-18 0-33-16-33-33l0-321c0-17 15-30 33-30z m-234 320l0-171l-55 0l0 171z m-26-197c18 0 30-13 30-29c0-17-11-30-29-30c-18 0-30 13-30 30c0 16 11 29 29 29z m227 197l0-100c0-51-27-75-63-75c-29 0-42 17-50 28l0-24l-55 0l0 171l55 0l0-97c0-5 0-10 2-14c4-10 13-20 28-20c20 0 28 15 28 37l0 94z"/>
    </symbol>
  
    <symbol id="icon-letter-mail" viewBox="0 0 512 512">
      <path d="m256 306l256-124l0 266l-512 0l0-266z m256-168l-256 123l-256-123l0-74l512 0z"/>
    </symbol>
  
</svg>
