<svg xmlns="http://www.w3.org/2000/svg" viewBox="0 0 100 100" enable-background="new 0 0 100 100">
    <g>
        <path fill-rule="evenodd" clip-rule="evenodd" fill="#fff" d="M67.74 50.286c0 5.776 3 10.848 7.525 13.752h3.02v-3.844c-3.4-1.992-5.686-5.682-5.686-9.908 0-6.34 5.138-11.478 11.477-11.478 2.69 0 5.16.93 7.118 2.482h3.842v-3.118c-2.9-2.624-6.743-4.223-10.96-4.223-9.023 0-16.337 7.313-16.337 16.336z"/>
        <path fill-rule="evenodd" clip-rule="evenodd" fill="#fff" d="M49.525 72.148l7.99-7.99h-6.108v-.014l-.05.002c-.024 0-.047-.003-.07-.004l-4.883 4.882 3.12 3.124zm1.83-38.104c-8.313 0-15.05 6.74-15.05 15.05 0 8.29 6.7 15.01 14.98 15.05l1.118-1.12v-.02h.02l3.334-3.334h-4.402c-5.84 0-10.574-4.734-10.574-10.574s4.735-10.574 10.575-10.574S61.93 43.256 61.93 49.096c0 2.588-.934 4.957-2.478 6.794v.085l.02-.02 3.048 3.048h.126c2.33-2.647 3.76-6.103 3.76-9.907 0-8.313-6.74-15.052-15.05-15.052z"/>
        <path fill-rule="evenodd" clip-rule="evenodd" fill="#fff" d="M31.748 39.682l8.193-8.193-3.636-3.638-8.427 8.427c1.477.908 2.79 2.055 3.87 3.402zm-3.195 3.195c1.274 1.746 2.035 3.89 2.035 6.218 0 5.84-4.734 10.574-10.574 10.574S9.44 54.934 9.44 49.094c0-5.84 4.734-10.574 10.574-10.574 1.64 0 3.186.385 4.57 1.05l3.292-3.29c-2.29-1.41-4.977-2.236-7.863-2.236-8.313 0-15.05 6.74-15.05 15.05 0 8.314 6.738 15.052 15.05 15.052s15.05-6.74 15.05-15.05c0-3.566-1.245-6.836-3.316-9.414l-3.194 3.195zm-3.97-3.306l-3.503 3.505 3.637 3.637 3.836-3.836c-1.025-1.404-2.386-2.544-3.97-3.305z"/>
    </g>
</svg>
