<svg xmlns="http://www.w3.org/2000/svg" width="100" height="100" viewBox="0 0 100 100">
    <g>
        <path fill="#fff" d="M4 10h91v81H4z"/>
        <path d="M95 10v80H5V10h90m1-1H4v82h92V9zM52.817 51l-.754.53-.336-.53H51v1h27v-1zM51 12h1.23v1H51zM52.193 12h1.23v1h-1.23zM53.385 12h1.23v1h-1.23zM54.578 12h1.23v1h-1.23zM55.77 12H57v1h-1.23zM60 12h1.286v1H60zM61.248 12h1.286v1h-1.286zM62.495 12h1.286v1h-1.285zM63.743 12h1.286v1h-1.287zM64.99 12h1.286v1H64.99zM66.238 12h1.286v1h-1.286zM67.486 12h1.286v1h-1.286zM68.733 12h1.286v1h-1.287zM69.98 12h1.287v1H69.98zM71.228 12h1.286v1h-1.286zM72.476 12h1.286v1h-1.286zM73.724 12h1.286v1h-1.286zM74.97 12h1.287v1H74.97zM76.22 12h1.285v1H76.22zM77.466 12h1.286v1h-1.286zM78.714 12H80v1h-1.286zM51 14h1.246v1H51zM52.21 14h1.245v1H52.21zM53.417 14h1.246v1h-1.246zM54.626 14h1.246v1h-1.246zM55.834 14h1.246v1h-1.246zM57.043 14h1.246v1h-1.247zM58.25 14h1.247v1H58.25zM59.46 14h1.246v1H59.46zM60.67 14h1.245v1H60.67zM61.877 14h1.246v1h-1.246zM63.086 14h1.246v1h-1.246zM64.294 14h1.246v1h-1.246zM65.503 14h1.246v1h-1.247zM66.71 14h1.247v1H66.71zM67.92 14h1.246v1H67.92zM69.13 14h1.245v1H69.13zM70.337 14h1.246v1h-1.246zM71.546 14h1.246v1h-1.246zM72.754 14H74v1h-1.246zM77 14h1.336v1H77zM78.296 14h1.336v1h-1.336zM79.592 14h1.336v1h-1.336zM80.888 14h1.336v1h-1.336zM82.184 14h1.336v1h-1.336zM83.48 14h1.336v1H83.48zM84.776 14h1.336v1h-1.336zM86.072 14h1.336v1h-1.336zM87.368 14h1.336v1h-1.336zM88.664 14H90v1h-1.336zM51 17h1.434v1H51zM52.39 17h1.435v1H52.39zM53.783 17h1.434v1h-1.434zM55.174 17h1.434v1h-1.434zM56.566 17H58v1h-1.434zM60 17h1.315v1H60zM61.276 17h1.315v1h-1.314zM62.55 17h1.316v1H62.55zM63.827 17h1.315v1h-1.315zM65.102 17h1.315v1h-1.315zM66.378 17h1.315v1h-1.315zM67.654 17h1.315v1h-1.316zM68.93 17h1.314v1H68.93zM70.205 17h1.315v1h-1.315zM71.48 17h1.315v1H71.48zM72.756 17h1.315v1h-1.314zM74.032 17h1.315v1h-1.315zM75.307 17h1.315v1h-1.315zM76.583 17h1.315v1h-1.315zM77.858 17h1.315v1h-1.315zM79.134 17h1.315v1h-1.316zM80.41 17h1.315v1H80.41zM81.685 17H83v1h-1.315zM51 19h1.308v1H51zM52.27 19h1.307v1H52.27zM53.538 19h1.308v1h-1.308zM54.808 19h1.308v1h-1.308zM56.077 19h1.308v1h-1.308zM57.346 19h1.308v1h-1.308zM58.615 19h1.308v1h-1.308zM59.884 19h1.308v1h-1.308zM61.153 19h1.308v1h-1.307zM62.423 19h1.308v1h-1.307zM63.692 19H65v1h-1.308zM56 22h1.434v1H56zM57.39 22h1.435v1H57.39zM58.783 22h1.434v1h-1.434zM60.174 22h1.434v1h-1.434zM61.566 22H63v1h-1.434zM65 22h1.303v1H65zM66.264 22h1.303v1h-1.303zM67.528 22h1.303v1H67.53zM68.792 22h1.303v1h-1.303zM70.056 22h1.303v1h-1.304zM71.32 22h1.303v1H71.32zM72.584 22h1.303v1h-1.303zM73.848 22h1.303v1H73.85zM75.113 22h1.303v1h-1.303zM76.377 22h1.303v1h-1.303zM77.64 22h1.304v1H77.64zM78.905 22h1.303v1h-1.303zM80.17 22h1.302v1H80.17zM81.433 22h1.303v1h-1.303zM82.697 22H84v1h-1.303zM61 24h1.434v1H61zM62.39 24h1.435v1H62.39zM63.783 24h1.434v1h-1.434zM65.174 24h1.434v1h-1.434zM66.566 24H68v1h-1.434zM70 24h1.266v1H70zM71.228 24h1.266v1h-1.266zM72.456 24h1.266v1h-1.266zM73.684 24h1.266v1h-1.266zM74.91 24h1.267v1H74.91zM76.14 24h1.265v1H76.14zM77.367 24h1.266v1h-1.266zM78.595 24h1.266v1h-1.265zM79.823 24h1.266v1h-1.267zM81.05 24h1.267v1H81.05zM82.28 24h1.265v1H82.28zM83.506 24h1.266v1h-1.266zM84.734 24H86v1h-1.266zM51 27h1.23v1H51zM52.193 27h1.23v1h-1.23zM53.385 27h1.23v1h-1.23zM54.578 27h1.23v1h-1.23zM55.77 27H57v1h-1.23zM60 27h2v1h-2zM51 29h1.3v1H51zM52.26 29h1.3v1h-1.3zM53.522 29h1.3v1h-1.3zM54.783 29h1.3v1h-1.3zM56.044 29h1.3v1h-1.3zM57.306 29h1.3v1h-1.3zM58.567 29h1.3v1h-1.3zM59.828 29h1.3v1h-1.3zM61.09 29h1.3v1h-1.3zM62.35 29h1.3v1h-1.3zM63.61 29h1.3v1h-1.3zM64.872 29h1.3v1h-1.3zM66.133 29h1.3v1h-1.3zM67.394 29h1.3v1h-1.3zM68.656 29h1.3v1h-1.3zM69.917 29h1.3v1h-1.3zM71.178 29h1.3v1h-1.3zM72.44 29h1.3v1h-1.3zM73.7 29H75v1h-1.3zM51 31h1.28v1H51zM52.24 31h1.28v1h-1.28zM53.48 31h1.28v1h-1.28zM54.72 31H56v1h-1.28zM58 31h1.434v1H58zM59.39 31h1.435v1H59.39zM60.783 31h1.434v1h-1.434zM62.174 31h1.434v1h-1.434zM63.566 31H65v1h-1.434zM67 31h1.308v1H67zM68.27 31h1.307v1H68.27zM69.538 31h1.308v1h-1.308zM70.808 31h1.308v1h-1.308zM72.077 31h1.308v1h-1.308zM73.346 31h1.308v1h-1.308zM74.615 31h1.308v1h-1.308zM75.884 31h1.308v1h-1.308zM77.153 31h1.308v1h-1.307zM78.423 31h1.308v1h-1.307zM79.692 31H81v1h-1.308zM83 31h1.36v1H83zM84.32 31h1.36v1h-1.36zM85.64 31H87v1h-1.36zM51 34h1.287v1H51zM52.248 34h1.287v1h-1.287zM53.496 34h1.287v1h-1.287zM54.744 34h1.287v1h-1.286zM55.992 34h1.287v1H55.99zM57.24 34h1.287v1H57.24zM58.488 34h1.287v1h-1.287zM59.737 34h1.287v1h-1.287zM60.985 34h1.287v1h-1.287zM62.233 34h1.287v1h-1.287zM63.48 34h1.288v1H63.48zM64.73 34h1.286v1H64.73zM65.977 34h1.287v1h-1.287zM67.225 34h1.287v1h-1.287zM68.473 34h1.287v1h-1.287zM69.72 34h1.288v1H69.72zM70.97 34h1.286v1H70.97zM72.217 34h1.287v1h-1.287zM73.465 34h1.287v1h-1.287zM74.713 34H76v1h-1.287zM78.316 34h1.523v1h-1.524zM79.793 34h1.523v1h-1.523zM83.29 34h1.36v1h-1.36zM84.608 34h1.36v1h-1.36zM85.928 34h1.36v1h-1.36zM51 36h1.28v1H51zM52.24 36h1.28v1h-1.28zM53.483 36h1.28v1h-1.28zM54.724 36h1.28v1h-1.28zM58 36h1.256v1H58zM59.218 36h1.256v1h-1.256zM60.436 36h1.256v1h-1.256zM61.654 36h1.256v1h-1.256zM62.872 36h1.256v1h-1.256zM64.09 36h1.256v1H64.09zM65.308 36h1.256v1h-1.256zM66.526 36h1.256v1h-1.256zM67.744 36H69v1h-1.256zM72 36h1.36v1H72zM73.32 36h1.36v1h-1.36zM74.64 36H76v1h-1.36zM51 39h1.28v1H51zM52.24 39h1.28v1h-1.28zM53.483 39h1.28v1h-1.28zM54.724 39h1.28v1h-1.28zM59 39h1.285v1H59zM60.247 39h1.285v1h-1.285zM61.494 39h1.285v1h-1.286zM62.74 39h1.285v1H62.74zM63.987 39h1.285v1h-1.285zM65.234 39h1.285v1h-1.286zM66.48 39h1.286v1H66.48zM67.728 39h1.285v1h-1.285zM68.974 39h1.285v1h-1.286zM70.22 39h1.286v1H70.22zM71.468 39h1.285v1h-1.285zM72.715 39H74v1h-1.285zM51 41h1.27v.868H51zM52.233 41h1.27v.868h-1.27zM53.466 41h1.27v.868h-1.27zM54.7 41h1.27v.868H54.7zM55.932 41h1.27v.868h-1.27zM57.165 41h1.27v.868h-1.27zM58.398 41h1.27v.868H58.4zM59.63 41h1.272v.868h-1.27zM60.864 41h1.27v.868h-1.27zM62.098 41h1.27v.868H62.1zM63.33 41h1.272v.868h-1.27zM64.564 41h1.27v.868h-1.27zM65.797 41h1.27v.868h-1.27zM67.03 41h1.27v.868h-1.27zM68.263 41h1.27v.868h-1.27zM69.496 41h1.27v.868h-1.27zM70.73 41H72v.868h-1.27zM75 41h1.36v1H75zM76.32 41h1.36v1h-1.36zM77.64 41H79v1h-1.36zM56 44h1.28v1H56zM57.24 44h1.28v1h-1.28zM58.483 44h1.28v1h-1.28zM59.724 44h1.28v1h-1.28zM63 44h1.37v1H63zM64.33 44h1.37v1h-1.37zM65.658 44h1.37v1h-1.37zM66.986 44h1.37v1h-1.37zM68.315 44h1.37v1h-1.37zM69.644 44h1.37v1h-1.37zM70.973 44h1.37v1h-1.37zM72.3 44h1.37v1H72.3zM73.63 44H75v1h-1.37zM77 44h1.36v1H77zM78.32 44h1.36v1h-1.36zM79.64 44H81v1h-1.36zM56 46h1.23v1H56zM57.193 46h1.23v1h-1.23zM58.385 46h1.23v1h-1.23zM59.578 46h1.23v1h-1.23zM60.77 46H62v1h-1.23zM65 46h1.286v1H65zM66.248 46h1.286v1h-1.286zM67.495 46h1.286v1h-1.285zM68.743 46h1.286v1h-1.287zM69.99 46h1.286v1H69.99zM71.238 46h1.286v1h-1.286zM72.486 46h1.286v1h-1.286zM73.733 46h1.286v1h-1.287zM74.98 46h1.287v1H74.98zM76.228 46h1.286v1h-1.286zM77.476 46h1.286v1h-1.286zM78.724 46h1.286v1h-1.286zM79.97 46h1.287v1H79.97zM81.22 46h1.285v1H81.22zM82.466 46h1.286v1h-1.286zM83.714 46H85v1h-1.286zM81 51h1.523v1H81zM82.477 51H84v1h-1.523zM51 53h1.28v1H51zM52.24 53h1.28v1h-1.28zM53.483 53h1.28v1h-1.28zM54.724 53h1.28v1h-1.28zM58 53h1.284v1H58zM59.245 53h1.284v1h-1.285zM60.49 53h1.284v1H60.49zM61.736 53h1.284v1h-1.284zM62.98 53h1.285v1H62.98zM64.226 53h1.284v1h-1.284zM65.47 53h1.285v1H65.47zM66.716 53H68v1h-1.284zM71 53h1.36v1H71zM72.32 53h1.36v1h-1.36zM73.64 53H75v1h-1.36zM51 56h1.534v1H51zM52.49 56h1.533v1H52.49zM53.977 56h1.534v1h-1.533zM55.466 56H57v1h-1.534zM59 56h1.284v1H59zM60.245 56h1.284v1h-1.285zM61.49 56h1.284v1H61.49zM62.736 56h1.284v1h-1.284zM63.98 56h1.285v1H63.98zM65.226 56h1.284v1h-1.284zM66.47 56h1.285v1H66.47zM67.716 56H69v1h-1.284zM71 56h1.36v1H71zM72.32 56h1.36v1h-1.36zM73.64 56H75v1h-1.36zM56 58h1.36v1H56zM57.32 58h1.36v1h-1.36zM58.64 58H60v1h-1.36zM62 58h1.303v1H62zM63.264 58h1.303v1h-1.303zM64.528 58h1.303v1H64.53zM65.792 58h1.303v1h-1.303zM67.056 58h1.303v1h-1.304zM68.32 58h1.303v1H68.32zM69.584 58h1.303v1h-1.303zM70.848 58h1.303v1H70.85zM72.113 58h1.303v1h-1.303zM73.377 58h1.303v1h-1.303zM74.64 58h1.304v1H74.64zM75.905 58h1.303v1h-1.303zM77.17 58h1.302v1H77.17zM78.433 58h1.303v1h-1.303zM79.697 58H81v1h-1.303zM61 60h1.23v1H61zM62.193 60h1.23v1h-1.23zM63.385 60h1.23v1h-1.23zM64.578 60h1.23v1h-1.23zM65.77 60H67v1h-1.23zM70 60h1.286v1H70zM71.248 60h1.286v1h-1.286zM72.495 60h1.286v1h-1.285zM73.743 60h1.286v1h-1.287zM74.99 60h1.286v1H74.99zM76.238 60h1.286v1h-1.286zM77.486 60h1.286v1h-1.286zM78.733 60h1.286v1h-1.287zM79.98 60h1.287v1H79.98zM81.228 60h1.286v1h-1.286zM82.476 60h1.286v1h-1.286zM83.724 60h1.286v1h-1.286zM84.97 60h1.287v1H84.97zM86.22 60h1.285v1H86.22zM87.466 60h1.286v1h-1.286zM88.714 60H90v1h-1.286zM51 63h1.253v1H51zM52.216 63h1.253v1h-1.254zM53.432 63h1.253v1h-1.253zM54.647 63H55.9v1h-1.253zM55.863 63h1.253v1h-1.253zM57.08 63h1.252v1H57.08zM58.295 63h1.253v1h-1.253zM59.51 63h1.253v1H59.51zM60.726 63h1.253v1h-1.254zM61.942 63h1.253v1h-1.253zM63.158 63h1.253v1H63.16zM64.373 63h1.253v1h-1.253zM65.59 63h1.252v1H65.59zM66.805 63h1.253v1h-1.253zM68.02 63h1.254v1H68.02zM69.236 63h1.253v1h-1.254zM70.452 63h1.253v1h-1.253zM71.668 63h1.253v1H71.67zM72.884 63h1.253v1h-1.253zM74.1 63h1.252v1H74.1zM75.315 63h1.253v1h-1.253zM76.53 63h1.254v1H76.53zM77.747 63H79v1h-1.253zM51 65h1.28v1H51zM52.24 65h1.28v1h-1.28zM53.48 65h1.28v1h-1.28zM54.72 65H56v1h-1.28zM59 65h1.284v1H59zM60.245 65h1.284v1h-1.285zM61.49 65h1.284v1H61.49zM62.736 65h1.284v1h-1.284zM63.98 65h1.285v1H63.98zM65.226 65h1.284v1h-1.284zM66.47 65h1.285v1H66.47zM67.716 65H69v1h-1.284zM71 65h1.36v1H71zM72.32 65h1.36v1h-1.36zM73.64 65H75v1h-1.36zM51 68h1.248v1H51zM52.21 68h1.25v1h-1.25zM53.422 68h1.248v1h-1.248zM54.633 68h1.248v1h-1.247zM58 68h1.284v1H58zM59.245 68h1.284v1h-1.285zM60.49 68h1.284v1H60.49zM61.736 68h1.284v1h-1.284zM62.98 68h1.285v1H62.98zM64.226 68h1.284v1h-1.284zM65.47 68h1.285v1H65.47zM66.716 68H68v1h-1.284zM51 70h1.297v1H51zM52.258 70h1.297v1h-1.297zM53.516 70h1.297v1h-1.297zM54.773 70h1.297v1h-1.297zM56.03 70h1.298v1H56.03zM57.29 70h1.296v1H57.29zM58.547 70h1.297v1h-1.297zM59.805 70h1.297v1h-1.297zM61.063 70h1.297v1h-1.297zM62.32 70h1.297v1H62.32zM63.578 70h1.297v1h-1.297zM64.836 70h1.297v1h-1.297zM66.094 70h1.297v1h-1.296zM67.352 70h1.297v1H67.35zM68.61 70h1.297v1H68.61zM69.867 70h1.297v1h-1.297zM71.125 70h1.297v1h-1.297zM72.383 70h1.297v1h-1.297zM73.64 70h1.298v1H73.64zM74.9 70h1.296v1H74.9zM76.156 70h1.297v1h-1.297zM77.414 70h1.297v1h-1.296zM78.672 70h1.297v1H78.67zM79.93 70h1.297v1H79.93zM81.188 70h1.297v1h-1.297zM82.446 70h1.297v1h-1.297zM83.703 70H85v1h-1.297zM87 70h1.36v1H87zM88.32 70h1.36v1h-1.36zM89.64 70H91v1h-1.36zM56 73h1.32v1H56zM57.28 73h1.32v1h-1.32zM58.56 73h1.32v1h-1.32zM59.84 73h1.32v1h-1.32zM61.12 73h1.32v1h-1.32zM62.4 73h1.32v1H62.4zM63.68 73H65v1h-1.32zM51 75h1.28v1H51zM52.24 75h1.28v1h-1.28zM53.483 75h1.28v1h-1.28zM54.724 75h1.28v1h-1.28zM55.965 75h1.28v1h-1.28zM57.206 75h1.28v1h-1.28zM58.448 75h1.28v1h-1.28zM59.69 75h1.28v1h-1.28zM60.93 75h1.28v1h-1.28zM62.17 75h1.28v1h-1.28zM63.413 75h1.28v1h-1.28zM64.654 75h1.28v1h-1.28zM65.895 75h1.28v1h-1.28zM67.136 75h1.28v1h-1.28zM68.378 75h1.28v1h-1.28zM69.62 75h1.28v1h-1.28zM70.86 75h1.28v1h-1.28zM72.102 75h1.28v1h-1.28zM73.343 75h1.28v1h-1.28zM74.584 75h1.28v1h-1.28zM75.825 75h1.28v1h-1.28zM77.067 75h1.28v1h-1.28zM78.308 75h1.28v1h-1.28zM79.55 75h1.28v1h-1.28zM80.79 75h1.28v1h-1.28zM82.032 75h1.28v1h-1.28zM83.273 75h1.28v1h-1.28zM84.514 75h1.28v1h-1.28zM85.755 75h1.28v1h-1.28zM86.997 75h1.28v1h-1.28zM88.238 75h1.28v1h-1.28zM89.48 75h1.28v1h-1.28zM90.72 75H92v1h-1.28zM51 78h1.298v1H51zM52.26 78h1.297v1H52.26zM53.518 78h1.298v1h-1.298zM54.778 78h1.298v1h-1.298zM56.037 78h1.298v1h-1.298zM57.296 78h1.298v1h-1.298zM58.555 78h1.298v1h-1.298zM59.814 78h1.298v1h-1.298zM61.073 78h1.298v1h-1.297zM62.333 78h1.298v1h-1.297zM63.592 78h1.298v1h-1.298zM64.85 78h1.3v1h-1.3zM66.11 78h1.298v1H66.11zM67.37 78h1.297v1H67.37zM68.63 78h1.297v1H68.63zM69.888 78h1.298v1h-1.298zM71.147 78h1.298v1h-1.298zM72.406 78h1.298v1h-1.298zM73.665 78h1.298v1h-1.298zM74.924 78h1.298v1h-1.298zM76.184 78h1.298v1h-1.298zM77.443 78h1.298v1h-1.297zM78.702 78H80v1h-1.298zM56 81h1.286v1H56zM57.248 81h1.286v1h-1.286zM58.495 81h1.286v1h-1.285zM59.743 81h1.286v1h-1.287zM64 81h1.284v1H64zM65.245 81h1.284v1h-1.285zM66.49 81h1.284v1H66.49zM67.736 81h1.284v1h-1.284zM68.98 81h1.285v1H68.98zM70.226 81h1.284v1h-1.284zM71.47 81h1.285v1H71.47zM72.716 81H74v1h-1.284zM76 81h1.284v1H76zM77.245 81h1.284v1h-1.285zM78.49 81h1.284v1H78.49zM79.736 81h1.284v1h-1.284zM80.98 81h1.285v1H80.98zM82.226 81h1.284v1h-1.284zM83.47 81h1.285v1H83.47zM84.716 81H86v1h-1.284zM56 83h1.246v1H56zM57.21 83h1.245v1H57.21zM58.417 83h1.246v1h-1.246zM59.626 83h1.246v1h-1.246zM60.834 83h1.246v1h-1.246zM62.043 83h1.246v1h-1.247zM63.25 83h1.247v1H63.25zM64.46 83h1.246v1H64.46zM65.67 83h1.245v1H65.67zM66.877 83h1.246v1h-1.246zM68.086 83h1.246v1h-1.246zM69.294 83h1.246v1h-1.246zM70.503 83h1.246v1h-1.247zM71.71 83h1.247v1H71.71zM72.92 83h1.246v1H72.92zM74.13 83h1.245v1H74.13zM75.337 83h1.246v1h-1.246zM76.546 83h1.246v1h-1.246zM77.754 83H79v1h-1.246zM56 85h1.23v1H56zM57.193 85h1.23v1h-1.23zM58.385 85h1.23v1h-1.23zM59.578 85h1.23v1h-1.23zM60.77 85H62v1h-1.23zM65 85h1.258v1H65zM66.22 85h1.258v1H66.22zM67.44 85h1.258v1H67.44zM68.66 85h1.258v1H68.66zM69.88 85h1.26v1h-1.26zM71.1 85h1.26v1H71.1zM72.32 85h1.26v1h-1.26zM73.54 85h1.26v1h-1.26zM74.76 85h1.26v1h-1.26zM75.98 85h1.26v1h-1.26zM77.2 85h1.26v1H77.2zM78.42 85h1.26v1h-1.26zM79.642 85H80.9v1h-1.258zM80.862 85h1.258v1h-1.258zM82.082 85h1.258v1h-1.258zM83.302 85h1.258v1h-1.258zM84.522 85h1.258v1h-1.258zM85.742 85H87v1h-1.258zM51 87h1.308v1H51zM52.27 87h1.307v1H52.27zM53.538 87h1.308v1h-1.308zM54.808 87h1.308v1h-1.308zM56.077 87h1.308v1h-1.308zM57.346 87h1.308v1h-1.308zM58.615 87h1.308v1h-1.308zM59.884 87h1.308v1h-1.308zM61.153 87h1.308v1h-1.307zM62.423 87h1.308v1h-1.307zM63.692 87H65v1h-1.308zM54 48.965v.594l-1.795 1.26-.36-.568 1.62-.99-1.62-.957.355-.6 1.8 1.26z"/>
        <path fill="#ccc" d="M5 64h44v15H5z"/>
        <path d="M13 71v-1h1.253v1H13zM14.216 71v-1h1.253v1h-1.254zM15.432 71v-1h1.253v1h-1.253zM16.647 71v-1H17.9v1h-1.253zM17.863 71v-1h1.253v1h-1.253zM19.08 71v-1h1.252v1H19.08zM20.295 71v-1h1.253v1h-1.253zM21.51 71v-1h1.253v1H21.51zM22.726 71v-1h1.253v1h-1.254zM23.942 71v-1h1.253v1h-1.253zM25.158 71v-1h1.253v1H25.16zM26.373 71v-1h1.253v1h-1.253zM27.59 71v-1h1.252v1H27.59zM28.805 71v-1h1.253v1h-1.253zM30.02 71v-1h1.254v1H30.02zM31.236 71v-1h1.253v1h-1.254zM32.452 71v-1h1.253v1h-1.253zM33.668 71v-1h1.253v1H33.67zM34.884 71v-1h1.253v1h-1.253zM36.1 71v-1h1.252v1H36.1zM37.315 71v-1h1.253v1h-1.253zM38.53 71v-1h1.254v1H38.53zM39.747 71v-1H41v1h-1.253zM13 73v-1h1.28v1H13zM14.24 73v-1h1.28v1h-1.28zM15.48 73v-1h1.28v1h-1.28zM16.72 73v-1H18v1h-1.28zM21 73v-1h1.284v1H21zM22.245 73v-1h1.284v1h-1.285zM23.49 73v-1h1.284v1H23.49zM24.736 73v-1h1.284v1h-1.284zM25.98 73v-1h1.285v1H25.98zM27.226 73v-1h1.284v1h-1.284zM28.47 73v-1h1.285v1H28.47zM29.716 73v-1H31v1h-1.284zM33 73v-1h1.36v1H33zM34.32 73v-1h1.36v1h-1.36zM35.64 73v-1H37v1h-1.36z"/>
        <path fill="#ccc" d="M6 12h42v24H6z"/>
        <path d="M12 41v-1h1.23v1H12zM13.193 41v-1h1.23v1h-1.23zM14.385 41v-1h1.23v1h-1.23zM15.578 41v-1h1.23v1h-1.23zM16.77 41v-1H18v1h-1.23zM21.03 41v-1h1.435v1H21.03zM22.423 41v-1h1.434v1h-1.434zM23.814 41v-1h1.434v1h-1.434zM25.205 41v-1h1.434v1h-1.435zM26.597 41v-1h1.434v1h-1.433zM30 41v-1h1.23v1H30zM31.193 41v-1h1.23v1h-1.23zM32.385 41v-1h1.23v1h-1.23zM33.578 41v-1h1.23v1h-1.23zM34.77 41v-1H36v1h-1.23zM39 41v-1h1.36v1H39zM40.32 41v-1h1.36v1h-1.36zM41.64 41v-1H43v1h-1.36zM8 43v-1h1.434v1H8zM9.39 43v-1h1.435v1H9.39zM10.783 43v-1h1.434v1h-1.434zM12.174 43v-1h1.434v1h-1.434zM13.566 43v-1H15v1h-1.434zM17 43v-1h1.402v1H17zM18.36 43v-1h1.402v1H18.36zM19.72 43v-1h1.402v1H19.72zM21.08 43v-1h1.402v1H21.08zM22.44 43v-1h1.4v1h-1.4zM23.8 43v-1h1.4v1h-1.4zM25.16 43v-1h1.4v1h-1.4zM26.52 43v-1h1.4v1h-1.4zM27.88 43v-1h1.4v1h-1.4zM29.24 43v-1h1.4v1h-1.4zM30.598 43v-1H32v1h-1.402zM33 43v-1h1.336v1H33zM34.296 43v-1h1.336v1h-1.336zM35.592 43v-1h1.336v1h-1.336zM36.888 43v-1h1.336v1h-1.336zM38.184 43v-1h1.336v1h-1.336zM39.48 43v-1h1.336v1H39.48zM40.776 43v-1h1.336v1h-1.336zM42.072 43v-1h1.336v1h-1.336zM43.368 43v-1h1.336v1h-1.336zM44.664 43v-1H46v1h-1.336z"/>
        <g fill="#ccc">
            <path d="M7 47h12v13H7zM21 47h12v13H21z"/>
        </g>
        <g fill="#ccc">
            <path d="M7 83h12v7H7zM21 83h12v7H21zM35 83h12v7H35z"/>
        </g>
        <path fill="#ccc" d="M45.5 49.82v-1.11l1.5-1.05V47H35v13h12v-9.128z"/>
        <path d="M46 49.56v-.59l1.805-1.265.35.573-1.62.984 1.62.963-.36.594L46 49.56zM50 47.052V10h-1v39.214zM49.507 52.15L49 51.907V90h1V51.08zM49.265 51.48l-.625-.297 2.1-4.54.62.296-2.095 4.54zM54.5 48.705l-1-.705H88v1H54.578zM51 48v1h1.04l-.846-.5.25-.5z"/>
    </g>
</svg>
